<svg width="27" height="27" viewBox="0 0 27 27" fill="none" xmlns="http://www.w3.org/2000/svg">
<path d="M13.5 0C6.04136 0 0 6.04412 0 13.5C0 20.9586 6.04136 27 13.5 27C20.9586 27 27 20.9586 27 13.5C27 6.04412 20.9586 0 13.5 0ZM20.4926 18.7004C20.4926 19.1553 20.2996 19.5855 19.9632 19.8943C19.6296 20.2031 19.1746 20.352 18.7224 20.3107C17.1673 20.1645 15.659 19.7537 14.25 19.0836C12.8796 18.4301 11.6415 17.5561 10.5634 16.4807C9.48805 15.4081 8.60846 14.1645 7.96048 12.7941C7.29044 11.3851 6.87408 9.88235 6.73346 8.32169C6.72794 8.27206 6.72794 8.22519 6.72794 8.17555C6.72794 7.77022 6.8796 7.38143 7.14982 7.08088C7.45864 6.74449 7.88879 6.55147 8.34375 6.55147H10.5138C11.341 6.55147 12.0248 7.16636 12.1186 7.98254C12.171 8.46232 12.2675 8.93658 12.4081 9.39706C12.5873 9.97335 12.4301 10.5965 12.0083 11.0156L11.1287 11.898C12.0524 13.5827 13.4559 14.9862 15.1406 15.9099L16.023 15.0276C16.4421 14.6085 17.0653 14.4513 17.6415 14.6305C18.102 14.7684 18.5763 14.8676 19.0561 14.92C19.8722 15.0138 20.4871 15.7031 20.4871 16.5248V18.7004H20.4926Z" fill="#302F2F"/>
</svg>
