<svg width="13" height="14" viewBox="0 0 13 14" fill="none" xmlns="http://www.w3.org/2000/svg">
<path d="M9.48976 13.8701C9.28663 13.8701 9.0783 13.8545 8.88038 13.8337C8.48976 13.7816 8.11476 13.7034 7.73976 13.5889C6.67205 13.2764 5.67726 12.8076 4.75538 12.1826C4.40642 11.943 4.07309 11.6826 3.76059 11.4014C3.52101 11.1878 3.29184 10.9639 3.0783 10.7243C2.55747 10.1722 2.11476 9.56803 1.74497 8.90136C1.15643 7.84407 0.760591 6.71907 0.557467 5.52115C0.380383 4.52115 0.422049 3.62532 0.682467 2.85969C0.797049 2.51073 0.963717 2.18261 1.17726 1.88573C1.36997 1.62011 1.59913 1.38573 1.85955 1.18782C2.25018 0.890942 2.68768 0.698233 3.17205 0.609692C3.38559 0.573233 3.59913 0.562818 3.81788 0.578442C4.04184 0.599277 4.25538 0.651358 4.45851 0.750317C4.66684 0.854484 4.84913 0.9899 5.0158 1.15657C5.16163 1.30761 5.29184 1.46907 5.41163 1.64615C5.63559 1.99511 5.82309 2.3649 5.96892 2.75032C6.25538 3.46386 6.45851 4.27636 6.47934 4.77115C6.48455 4.88573 6.47934 5.00032 6.46372 5.10969C6.41684 5.41177 6.2658 5.64094 6.00538 5.8024C5.83351 5.90136 5.65122 5.94823 5.4533 5.93261C5.37518 6.02636 5.30747 6.12532 5.25017 6.22948C5.17726 6.35969 5.11997 6.50032 5.0783 6.64094C5.1408 6.75032 5.29705 6.9899 5.67726 7.42219C5.85434 7.63053 6.02101 7.80761 6.12517 7.91698L6.13559 7.93261L6.15122 7.94823C6.25538 8.06803 6.35434 8.18261 6.44809 8.28157C6.62518 8.47949 6.81268 8.67219 7.01059 8.84928C7.06788 8.79719 7.13038 8.7399 7.19288 8.68261C7.38038 8.4899 7.58351 8.31803 7.80226 8.16178C7.94288 8.06282 8.09392 7.97948 8.25538 7.92219C8.46892 7.84407 8.68768 7.81803 8.91684 7.83886C9.21892 7.87532 9.64601 8.00032 9.86997 8.07323C10.2866 8.20344 10.6929 8.35449 11.0887 8.53157C11.5731 8.75553 11.9689 8.9899 12.2606 9.22428C12.4533 9.37532 12.6148 9.5524 12.7502 9.75553C12.9273 10.0212 13.0054 10.318 12.9793 10.6409C12.9377 11.0784 12.8283 11.5003 12.646 11.9066C12.5262 12.1618 12.3804 12.4066 12.2033 12.6305C12.0054 12.8857 11.7658 13.1097 11.5002 13.292C11.0106 13.6149 10.4689 13.8024 9.88559 13.8493C9.75538 13.8649 9.62518 13.8701 9.48976 13.8701ZM4.38038 9.47428L4.41163 9.50553C4.96372 10.1253 6.19809 11.2503 8.25538 11.8597C8.93768 12.0628 9.87518 12.2139 10.4846 11.8024C10.9481 11.4899 11.1096 10.9378 11.1616 10.6566C11.0679 10.5784 10.9741 10.5107 10.87 10.4534C10.6148 10.3024 10.3439 10.167 10.0679 10.0576C9.66163 9.89094 9.24497 9.75553 8.81788 9.65657C8.79705 9.67219 8.77101 9.69303 8.73455 9.71907C8.6408 9.79719 8.54184 9.89094 8.43247 9.9899C8.26059 10.167 8.06788 10.3284 7.86997 10.4743C7.49497 10.7295 7.11997 10.8232 6.75538 10.7451C6.46372 10.6826 6.17726 10.5159 5.82309 10.2034C5.57309 9.97949 5.33872 9.74511 5.11476 9.50032C5.0158 9.39094 4.91163 9.27115 4.80226 9.14094C4.68247 9.02115 4.50538 8.82844 4.31267 8.60448C4.09392 8.35448 3.88559 8.09407 3.69809 7.82323C3.42726 7.43261 3.29184 7.12532 3.2658 6.83365C3.25017 6.58365 3.28142 6.33365 3.36476 6.09407C3.43247 5.87011 3.52101 5.65657 3.63038 5.44823C3.73976 5.23469 3.86997 5.03157 4.02101 4.83886C4.17726 4.63053 4.36476 4.45344 4.58351 4.30761C4.5158 4.03157 4.42726 3.76073 4.3283 3.50032C4.22413 3.21907 4.09913 2.94823 3.94288 2.69303C3.80747 2.48469 3.71892 2.40136 3.68247 2.38053C3.58351 2.37011 3.48455 2.38053 3.38559 2.41178C3.18247 2.46907 3.00018 2.56803 2.84392 2.71386C2.31788 3.18782 2.13559 4.07844 2.33351 5.21386C2.73976 7.55761 3.89601 8.96907 4.38038 9.47428Z" fill="#162640"/>
</svg>
