<svg width="26" height="22" viewBox="0 0 26 22" fill="none" xmlns="http://www.w3.org/2000/svg">
<g clip-path="url(#clip0_1_87)">
<path d="M6.44935 0H12.9793L3.30529 16.4485L0 10.7427L6.44935 0Z" fill="#E8C571"/>
<path d="M25.5556 10.7427L24.0238 13.7468H21.3584C21.1052 13.4082 20.7743 13.1335 20.3928 12.9451C20.0113 12.7566 19.59 12.6598 19.1633 12.6625C18.7372 12.6627 18.3169 12.7607 17.9359 12.9488C17.5548 13.1369 17.2235 13.41 16.9682 13.7463H14.511L9.75241 21.8513H6.48966L4.91763 19.1474L12.9799 5.48283L15.2372 9.61481H13.6248L12.9239 11.0424L19.2154 11.0451L14.4724 2.90034L16.0444 0H19.1885L25.5556 10.7427Z" fill="#E8C571"/>
<path d="M22.4115 16.4485L19.2271 21.8519H12.9799L16.0433 16.4485H16.6524C16.8559 16.905 17.1836 17.2971 17.599 17.5815C18.0145 17.8659 18.5017 18.0315 19.0067 18.0601C19.5117 18.0886 20.0149 17.979 20.4607 17.7433C20.9065 17.5075 21.2774 17.1549 21.5325 16.7244C21.5843 16.6362 21.6314 16.5454 21.6736 16.4523L22.4115 16.4485Z" fill="#E8C571"/>
<path d="M19.2562 15.6048V17.2977H19.1627V15.8106C19.1432 15.8062 19.1243 15.7992 19.1068 15.7896C19.0719 15.7699 19.0438 15.7405 19.0259 15.7051C19.0079 15.6697 19.001 15.6298 19.006 15.5906C19.011 15.5513 19.0276 15.5143 19.0538 15.4843C19.08 15.4544 19.1146 15.4327 19.1533 15.422C19.1919 15.4113 19.2329 15.4121 19.2711 15.4244C19.3093 15.4366 19.343 15.4597 19.3679 15.4907C19.3929 15.5217 19.4079 15.5593 19.4113 15.5987C19.4146 15.6382 19.4061 15.6777 19.3867 15.7124C19.373 15.7363 19.3546 15.7573 19.3324 15.774C19.3103 15.7907 19.2849 15.8027 19.2579 15.8095V15.6048H19.2562Z" fill="white"/>
<path d="M19.7427 16.6311V16.0876L19.7584 16.0738L20.0837 15.7813C20.0767 15.7635 20.0738 15.7444 20.0751 15.7253C20.0765 15.7062 20.0821 15.6877 20.0915 15.671C20.1042 15.6481 20.1234 15.6294 20.1469 15.6173C20.1703 15.6051 20.1968 15.6001 20.2231 15.6027C20.2494 15.6054 20.2744 15.6156 20.2948 15.6322C20.3152 15.6487 20.3302 15.6709 20.338 15.6958C20.3457 15.7208 20.3458 15.7474 20.3382 15.7724C20.3306 15.7974 20.3157 15.8196 20.2954 15.8363C20.275 15.8529 20.2501 15.8633 20.2238 15.8661C20.1975 15.8689 20.171 15.864 20.1475 15.852L19.8385 16.1279V16.6356C19.8186 16.6311 19.7983 16.6289 19.778 16.6289L19.7427 16.6311Z" fill="white"/>
<path d="M19.4466 16.6311V15.847L19.4539 15.8227C19.4539 15.8227 19.6134 15.5722 19.7231 15.4072C19.6999 15.3764 19.6887 15.3384 19.6915 15.3001C19.6943 15.2618 19.711 15.2258 19.7385 15.1987C19.766 15.1715 19.8025 15.155 19.8414 15.1521C19.8802 15.1493 19.9188 15.1603 19.9501 15.1831C19.9814 15.206 20.0033 15.2392 20.0118 15.2766C20.0204 15.314 20.015 15.3533 19.9966 15.3871C19.9783 15.421 19.9482 15.4472 19.9119 15.461C19.8755 15.4748 19.8354 15.4753 19.7987 15.4624C19.7069 15.6015 19.5748 15.8122 19.5401 15.8625V16.635L19.4466 16.6311Z" fill="white"/>
<path d="M18.9646 16.6311V15.8696L18.9578 15.8453C18.9578 15.8453 18.7983 15.5948 18.6886 15.4298C18.7118 15.399 18.723 15.361 18.7202 15.3227C18.7174 15.2845 18.7007 15.2485 18.6732 15.2213C18.6457 15.1941 18.6092 15.1776 18.5703 15.1748C18.5315 15.1719 18.4929 15.1829 18.4616 15.2058C18.4303 15.2286 18.4084 15.2618 18.3999 15.2992C18.3913 15.3367 18.3967 15.3759 18.4151 15.4097C18.4334 15.4436 18.4635 15.4698 18.4998 15.4836C18.5362 15.4975 18.5763 15.4979 18.613 15.485C18.7048 15.6241 18.8369 15.8349 18.8716 15.8851V16.6333L18.9646 16.6311Z" fill="white"/>
<path d="M18.6253 16.6311V16.0793L18.6102 16.0661C18.6102 16.0661 18.4058 15.8823 18.2849 15.7736C18.2962 15.7446 18.2969 15.7126 18.2867 15.6832C18.2765 15.6538 18.2561 15.6289 18.2291 15.6128C18.2022 15.5967 18.1703 15.5904 18.1391 15.5951C18.108 15.5999 18.0795 15.6152 18.0587 15.6386C18.0378 15.6619 18.026 15.6917 18.0252 15.7228C18.0244 15.7538 18.0347 15.7842 18.0544 15.8085C18.074 15.8328 18.1017 15.8496 18.1326 15.8558C18.1635 15.862 18.1956 15.8574 18.2233 15.8426C18.3247 15.9342 18.4831 16.076 18.5324 16.1185V16.6311H18.6253Z" fill="white"/>
<path d="M19.9723 14.0205V14.5795L19.9672 14.5971C19.9672 14.5971 19.8553 14.7759 19.7752 14.8929C19.7919 14.9137 19.8008 14.9396 19.8004 14.9661C19.7999 14.9927 19.7901 15.0182 19.7727 15.0385C19.7553 15.0587 19.7313 15.0723 19.7048 15.0771C19.6783 15.0819 19.651 15.0774 19.6274 15.0645C19.6012 15.0512 19.5811 15.0285 19.5713 15.001C19.5614 14.9736 19.5626 14.9435 19.5746 14.9169C19.5865 14.8902 19.6083 14.8691 19.6355 14.8578C19.6627 14.8465 19.6932 14.8458 19.7209 14.8559C19.7864 14.7566 19.8827 14.606 19.9057 14.5701V14.0183L19.9723 14.0205Z" fill="white"/>
<path d="M18.3958 14.0205V14.5795L18.4008 14.5971C18.4008 14.5971 18.5128 14.7759 18.5928 14.8929C18.5796 14.9092 18.5711 14.9286 18.5683 14.9492C18.5654 14.9699 18.5683 14.9909 18.5767 15.01C18.585 15.0291 18.5984 15.0457 18.6156 15.0578C18.6327 15.07 18.6528 15.0774 18.6739 15.0791C18.6949 15.0809 18.7161 15.0769 18.735 15.0678C18.754 15.0586 18.77 15.0445 18.7815 15.027C18.7929 15.0095 18.7994 14.9893 18.8001 14.9685C18.8007 14.9477 18.7957 14.9271 18.7854 14.9089C18.7727 14.8849 18.7518 14.8662 18.7263 14.8561C18.7009 14.846 18.6726 14.8452 18.6466 14.8537C18.5811 14.7544 18.4853 14.6038 18.4624 14.5679V14.0161L18.3958 14.0205Z" fill="white"/>
<path d="M19.2439 14.8471V13.5686H19.1728V14.6921C19.1583 14.6952 19.1444 14.7004 19.1314 14.7075C19.1003 14.7247 19.0762 14.7521 19.0634 14.7849C19.0505 14.8178 19.0497 14.854 19.061 14.8873C19.0723 14.9207 19.0951 14.9491 19.1254 14.9677C19.1557 14.9863 19.1916 14.9939 19.227 14.9892C19.2624 14.9845 19.295 14.9678 19.3192 14.9419C19.3434 14.9161 19.3577 14.8827 19.3596 14.8476C19.3616 14.8125 19.351 14.7778 19.3298 14.7495C19.3086 14.7212 19.278 14.7011 19.2434 14.6926V14.8471H19.2439Z" fill="white"/>
<path d="M17.8969 14.3913V14.9503L17.902 14.9674C17.902 14.9674 18.0139 15.1462 18.094 15.2637C18.0766 15.2851 18.0676 15.3119 18.0685 15.3392C18.0694 15.3666 18.0803 15.3927 18.0992 15.4128C18.118 15.4329 18.1435 15.4457 18.1711 15.4488C18.1987 15.4519 18.2265 15.4452 18.2495 15.4298C18.2724 15.4144 18.289 15.3914 18.2962 15.3649C18.3034 15.3385 18.3008 15.3104 18.2887 15.2857C18.2767 15.2611 18.256 15.2415 18.2306 15.2306C18.2051 15.2197 18.1765 15.2181 18.15 15.2262C18.0845 15.1269 17.9888 14.9768 17.9658 14.9404V14.3913H17.8969Z" fill="white"/>
<path d="M20.4711 14.3913V14.9503L20.4661 14.9674C20.4661 14.9674 20.3541 15.1462 20.274 15.2637C20.2916 15.2852 20.3007 15.3121 20.2998 15.3396C20.2989 15.3671 20.2879 15.3933 20.269 15.4136C20.2501 15.4338 20.2244 15.4467 20.1967 15.4498C20.169 15.453 20.141 15.4462 20.1179 15.4307C20.0948 15.4152 20.0781 15.3921 20.0709 15.3655C20.0637 15.3389 20.0664 15.3107 20.0785 15.2859C20.0907 15.2611 20.1114 15.2415 20.137 15.2305C20.1626 15.2196 20.1914 15.218 20.218 15.2262C20.2835 15.1269 20.3793 14.9768 20.4022 14.9404V14.3913H20.4711Z" fill="white"/>
<path d="M21.1379 15.6583L20.9923 15.6147C20.9655 15.6068 20.9422 15.5901 20.9263 15.5675C20.9103 15.5448 20.9026 15.5175 20.9044 15.49C20.9066 15.4561 20.9078 15.4225 20.9078 15.389C20.9078 15.3555 20.9066 15.3219 20.9044 15.288C20.9026 15.2605 20.9103 15.2332 20.9263 15.2105C20.9422 15.1879 20.9655 15.1712 20.9923 15.1633L21.1379 15.1197C21.177 15.1076 21.2098 15.0808 21.2291 15.0451C21.2484 15.0093 21.2526 14.9676 21.2409 14.9288L21.1496 14.6358C21.1437 14.6166 21.1339 14.5987 21.121 14.5832C21.108 14.5677 21.0921 14.5549 21.0741 14.5454C21.0561 14.536 21.0364 14.5302 21.0161 14.5282C20.9959 14.5263 20.9754 14.5284 20.9559 14.5342L20.8109 14.5778C20.7842 14.5861 20.7554 14.5852 20.7294 14.5752C20.7033 14.5651 20.6815 14.5466 20.6676 14.5226C20.6214 14.4467 20.5695 14.3742 20.5125 14.3058C20.4946 14.2847 20.4845 14.2583 20.4838 14.2309C20.483 14.2034 20.4918 14.1765 20.5086 14.1546L20.5999 14.0343C20.6244 14.0018 20.6349 13.961 20.629 13.9209C20.6231 13.8807 20.6014 13.8446 20.5685 13.8202L20.3199 13.637C20.287 13.6126 20.2455 13.6021 20.2047 13.6077C20.1638 13.6134 20.127 13.6349 20.1022 13.6673L20.0115 13.7871C19.9949 13.8092 19.9712 13.8251 19.9442 13.8323C19.9173 13.8394 19.8887 13.8373 19.8631 13.8263C19.7747 13.7891 19.6833 13.7592 19.5899 13.7369C19.5627 13.7306 19.5384 13.7154 19.5211 13.6937C19.5038 13.6721 19.4945 13.6452 19.4947 13.6177V13.4681C19.4946 13.4275 19.4781 13.3887 19.4489 13.36C19.4198 13.3314 19.3803 13.3153 19.3391 13.3153H19.0289C18.9878 13.3153 18.9483 13.3314 18.9191 13.36C18.8899 13.3887 18.8735 13.4275 18.8733 13.4681V13.6177C18.8735 13.6452 18.8642 13.6721 18.8469 13.6937C18.8296 13.7154 18.8054 13.7306 18.7781 13.7369C18.6847 13.7592 18.5934 13.7891 18.5049 13.8263C18.4794 13.8373 18.4508 13.8394 18.4238 13.8323C18.3968 13.8251 18.3731 13.8092 18.3566 13.7871L18.2659 13.6673C18.2536 13.6513 18.2383 13.6378 18.2208 13.6275C18.2032 13.6173 18.1838 13.6106 18.1637 13.6078C18.1435 13.605 18.1229 13.6061 18.1032 13.6111C18.0835 13.6161 18.0649 13.6249 18.0487 13.637L17.7995 13.8213C17.7667 13.8457 17.7449 13.8819 17.7391 13.922C17.7332 13.9621 17.7437 14.0029 17.7682 14.0354L17.8594 14.1557C17.8762 14.1776 17.885 14.2045 17.8843 14.232C17.8836 14.2594 17.8734 14.2858 17.8555 14.3069C17.7983 14.3752 17.7465 14.4477 17.7004 14.5238C17.6865 14.5477 17.6647 14.5662 17.6387 14.5763C17.6126 14.5863 17.5838 14.5872 17.5571 14.5789L17.4121 14.5353C17.3926 14.5295 17.3722 14.5274 17.3519 14.5293C17.3316 14.5313 17.3119 14.5371 17.2939 14.5465C17.2759 14.556 17.26 14.5688 17.2471 14.5843C17.2341 14.5998 17.2244 14.6177 17.2184 14.6369L17.1272 14.9299C17.1154 14.9687 17.1197 15.0104 17.1389 15.0462C17.1582 15.0819 17.191 15.1087 17.2302 15.1208L17.3757 15.1644C17.4025 15.1723 17.4258 15.189 17.4418 15.2116C17.4577 15.2343 17.4654 15.2616 17.4636 15.2891C17.4614 15.323 17.4603 15.3566 17.4603 15.3901C17.4603 15.4236 17.4614 15.4572 17.4636 15.4911C17.4654 15.5186 17.4577 15.5459 17.4418 15.5686C17.4258 15.5912 17.4025 15.6079 17.3757 15.6158L17.2302 15.6594C17.191 15.6715 17.1582 15.6983 17.1389 15.734C17.1197 15.7698 17.1154 15.8115 17.1272 15.8503L17.2184 16.1433C17.2244 16.1625 17.2341 16.1804 17.2471 16.1959C17.26 16.2114 17.2759 16.2242 17.2939 16.2337C17.3119 16.2431 17.3316 16.2489 17.3519 16.2509C17.3722 16.2528 17.3926 16.2507 17.4121 16.2449L17.5571 16.2013C17.5838 16.193 17.6126 16.1939 17.6387 16.2039C17.6647 16.214 17.6865 16.2325 17.7004 16.2564C17.7463 16.3326 17.7982 16.4051 17.8555 16.4733C17.8735 16.4944 17.8836 16.521 17.8844 16.5485C17.8851 16.5761 17.8763 16.6031 17.8594 16.6251L17.7682 16.7459C17.7437 16.7784 17.7332 16.8192 17.7391 16.8593C17.7449 16.8994 17.7667 16.9356 17.7995 16.96L18.0487 17.1432C18.0649 17.1553 18.0835 17.1641 18.1032 17.1691C18.1229 17.1741 18.1435 17.1752 18.1637 17.1724C18.1838 17.1696 18.2032 17.1629 18.2208 17.1527C18.2383 17.1424 18.2536 17.1289 18.2659 17.1129L18.3566 16.9931C18.3731 16.971 18.3968 16.9551 18.4238 16.9479C18.4508 16.9408 18.4794 16.9429 18.5049 16.9539C18.5934 16.9911 18.6847 17.021 18.7781 17.0433C18.8054 17.0496 18.8296 17.0648 18.8469 17.0865C18.8642 17.1081 18.8735 17.135 18.8733 17.1625V17.3121C18.8735 17.3527 18.8899 17.3915 18.9191 17.4202C18.9483 17.4488 18.9878 17.4649 19.0289 17.4649H19.3391C19.3803 17.4649 19.4198 17.4488 19.4489 17.4202C19.4781 17.3915 19.4946 17.3527 19.4947 17.3121V17.1598C19.4945 17.1322 19.5038 17.1054 19.5211 17.0837C19.5384 17.0621 19.5627 17.0468 19.5899 17.0406C19.6833 17.0182 19.7747 16.9883 19.8631 16.9512C19.8887 16.9402 19.9173 16.9381 19.9442 16.9452C19.9712 16.9523 19.9949 16.9682 20.0115 16.9904L20.1022 17.1101C20.1144 17.1262 20.1297 17.1397 20.1473 17.1499C20.1648 17.1601 20.1842 17.1668 20.2044 17.1696C20.2246 17.1725 20.2451 17.1713 20.2648 17.1663C20.2846 17.1613 20.3031 17.1525 20.3194 17.1405L20.5685 16.9573C20.6014 16.9329 20.6231 16.8967 20.629 16.8566C20.6349 16.8165 20.6244 16.7757 20.5999 16.7431L20.5086 16.6229C20.4918 16.6009 20.483 16.574 20.4838 16.5466C20.4845 16.5191 20.4946 16.4927 20.5125 16.4717C20.5697 16.4034 20.6216 16.3309 20.6676 16.2548C20.6815 16.2309 20.7033 16.2123 20.7294 16.2023C20.7554 16.1922 20.7842 16.1913 20.8109 16.1996L20.9559 16.2432C20.9754 16.2491 20.9959 16.2511 21.0161 16.2492C21.0364 16.2473 21.0561 16.2414 21.0741 16.232C21.0921 16.2226 21.108 16.2097 21.121 16.1942C21.1339 16.1787 21.1437 16.1609 21.1496 16.1417L21.2409 15.8487C21.2524 15.8099 21.2481 15.7683 21.2289 15.7327C21.2096 15.6971 21.1769 15.6704 21.1379 15.6583ZM19.184 16.6289C18.9352 16.6289 18.692 16.5562 18.4851 16.42C18.2783 16.2837 18.117 16.0901 18.0218 15.8635C17.9266 15.6369 17.9017 15.3876 17.9502 15.1471C17.9988 14.9066 18.1186 14.6856 18.2945 14.5122C18.4704 14.3388 18.6946 14.2207 18.9386 14.1729C19.1826 14.1251 19.4356 14.1496 19.6654 14.2435C19.8953 14.3373 20.0917 14.4962 20.23 14.7001C20.3682 14.904 20.442 15.1438 20.442 15.389C20.442 15.5518 20.4094 15.7131 20.3462 15.8635C20.283 16.0139 20.1903 16.1506 20.0735 16.2658C19.9567 16.3809 19.818 16.4722 19.6654 16.5345C19.5128 16.5969 19.3492 16.6289 19.184 16.6289Z" fill="white"/>
</g>
<defs>
<clipPath id="clip0_1_87">
<rect width="25.5556" height="21.8519" fill="white"/>
</clipPath>
</defs>
</svg>
