<svg width="18" height="15" viewBox="0 0 18 15" fill="none" xmlns="http://www.w3.org/2000/svg">
<g clip-path="url(#clip0_3_13)">
<path d="M4.54259 0H9.14196L2.32808 11.2909L0 7.37424L4.54259 0Z" fill="#03285B"/>
<path d="M18 7.37424L16.9212 9.43636H15.0438C14.8654 9.20397 14.6324 9.01539 14.3637 8.88603C14.095 8.75667 13.7982 8.6902 13.4977 8.69205C13.1975 8.69216 12.9015 8.75946 12.6331 8.88859C12.3647 9.01772 12.1314 9.20514 11.9515 9.43599H10.2208L6.86911 14.9996H4.571L3.46375 13.1436L9.14237 3.76364L10.7323 6.6H9.59663L9.10294 7.57993L13.5343 7.58182L10.1936 1.99091L11.3009 0H13.5154L18 7.37424Z" fill="#03285B"/>
<path d="M15.7855 11.2909L13.5426 15H9.14233L11.3001 11.2909H11.7291C11.8724 11.6042 12.1032 11.8734 12.3958 12.0686C12.6885 12.2639 13.0316 12.3776 13.3873 12.3972C13.743 12.4168 14.0975 12.3415 14.4114 12.1797C14.7254 12.0179 14.9867 11.7758 15.1664 11.4803C15.2029 11.4197 15.236 11.3574 15.2658 11.2935L15.7855 11.2909Z" fill="#03285B"/>
<path d="M13.5631 10.7117V11.8739H13.4973V10.853C13.4835 10.85 13.4702 10.8452 13.4578 10.8386C13.4333 10.8251 13.4135 10.8049 13.4008 10.7806C13.3882 10.7563 13.3833 10.729 13.3868 10.702C13.3903 10.675 13.4021 10.6497 13.4205 10.6291C13.439 10.6085 13.4633 10.5936 13.4906 10.5863C13.5178 10.579 13.5467 10.5795 13.5736 10.5879C13.6005 10.5963 13.6242 10.6121 13.6418 10.6334C13.6593 10.6547 13.67 10.6805 13.6723 10.7076C13.6747 10.7347 13.6686 10.7618 13.655 10.7856C13.6454 10.802 13.6324 10.8164 13.6168 10.8279C13.6012 10.8394 13.5833 10.8476 13.5643 10.8523V10.7117H13.5631Z" fill="#03285B"/>
<path d="M13.9058 11.4163V11.0432L13.9168 11.0337L14.1459 10.8329C14.141 10.8207 14.1389 10.8076 14.1399 10.7945C14.1408 10.7814 14.1448 10.7686 14.1514 10.7572C14.1604 10.7415 14.1739 10.7286 14.1904 10.7203C14.2069 10.712 14.2256 10.7085 14.2441 10.7103C14.2627 10.7121 14.2802 10.7192 14.2946 10.7305C14.309 10.7419 14.3196 10.7571 14.325 10.7742C14.3304 10.7914 14.3305 10.8096 14.3252 10.8268C14.3198 10.8439 14.3093 10.8592 14.295 10.8706C14.2807 10.8821 14.2632 10.8892 14.2446 10.8911C14.2261 10.8931 14.2074 10.8897 14.1909 10.8814L13.9732 11.0708V11.4193C13.9592 11.4162 13.9449 11.4147 13.9306 11.4148L13.9058 11.4163Z" fill="#03285B"/>
<path d="M13.6971 11.4163V10.878L13.7023 10.8614C13.7023 10.8614 13.8147 10.6894 13.8919 10.5762C13.8756 10.555 13.8677 10.5289 13.8697 10.5026C13.8716 10.4764 13.8834 10.4516 13.9028 10.433C13.9221 10.4144 13.9479 10.403 13.9752 10.4011C14.0026 10.3991 14.0297 10.4067 14.0518 10.4223C14.0738 10.438 14.0892 10.4608 14.0953 10.4865C14.1013 10.5122 14.0975 10.5391 14.0846 10.5624C14.0716 10.5856 14.0505 10.6036 14.0249 10.6131C13.9993 10.6226 13.971 10.6229 13.9452 10.614C13.8805 10.7095 13.7874 10.8542 13.763 10.8887V11.419L13.6971 11.4163Z" fill="#03285B"/>
<path d="M13.3577 11.4163V10.8935L13.3529 10.8769C13.3529 10.8769 13.2406 10.7049 13.1633 10.5917C13.1796 10.5705 13.1875 10.5444 13.1856 10.5181C13.1836 10.4919 13.1718 10.4672 13.1524 10.4485C13.1331 10.4299 13.1074 10.4185 13.08 10.4166C13.0527 10.4146 13.0255 10.4222 13.0034 10.4378C12.9814 10.4535 12.966 10.4763 12.9599 10.502C12.9539 10.5277 12.9577 10.5546 12.9706 10.5779C12.9836 10.6011 13.0048 10.6191 13.0303 10.6286C13.0559 10.6381 13.0842 10.6384 13.11 10.6295C13.1747 10.725 13.2678 10.8697 13.2922 10.9042V11.4178L13.3577 11.4163Z" fill="#03285B"/>
<path d="M13.1187 11.4163V11.0375L13.108 11.0284C13.108 11.0284 12.9641 10.9023 12.8789 10.8277C12.8869 10.8078 12.8874 10.7858 12.8802 10.7656C12.873 10.7454 12.8586 10.7283 12.8396 10.7173C12.8206 10.7062 12.7982 10.7019 12.7763 10.7052C12.7543 10.7084 12.7342 10.7189 12.7196 10.735C12.7049 10.751 12.6966 10.7714 12.696 10.7928C12.6955 10.8141 12.7027 10.8349 12.7166 10.8516C12.7304 10.8683 12.7499 10.8798 12.7716 10.8841C12.7934 10.8884 12.816 10.8851 12.8356 10.875C12.9069 10.9379 13.0185 11.0352 13.0532 11.0644V11.4163H13.1187Z" fill="#03285B"/>
<path d="M14.0674 9.62426V10.008L14.0639 10.0201C14.0639 10.0201 13.985 10.1428 13.9286 10.2231C13.9404 10.2374 13.9467 10.2552 13.9463 10.2734C13.946 10.2916 13.9391 10.3091 13.9269 10.323C13.9146 10.3369 13.8977 10.3463 13.879 10.3495C13.8604 10.3528 13.8411 10.3498 13.8245 10.3409C13.8061 10.3318 13.7919 10.3162 13.785 10.2973C13.7781 10.2785 13.7789 10.2578 13.7873 10.2396C13.7957 10.2213 13.811 10.2068 13.8302 10.199C13.8494 10.1912 13.8709 10.1908 13.8904 10.1977C13.9365 10.1296 14.0043 10.0262 14.0205 10.0015V9.62274L14.0674 9.62426Z" fill="#03285B"/>
<path d="M12.957 9.62425V10.008L12.9606 10.0201C12.9606 10.0201 13.0394 10.1428 13.0958 10.2231C13.0865 10.2343 13.0806 10.2476 13.0785 10.2618C13.0765 10.2759 13.0786 10.2903 13.0844 10.3035C13.0903 10.3166 13.0998 10.328 13.1118 10.3363C13.1239 10.3447 13.1381 10.3497 13.1529 10.3509C13.1677 10.3521 13.1826 10.3494 13.196 10.3431C13.2093 10.3368 13.2206 10.3272 13.2287 10.3152C13.2368 10.3032 13.2413 10.2893 13.2418 10.275C13.2423 10.2607 13.2387 10.2466 13.2315 10.2341C13.2225 10.2176 13.2078 10.2048 13.1899 10.1978C13.1719 10.1909 13.152 10.1903 13.1337 10.1962C13.0876 10.128 13.0201 10.0246 13.004 10V9.62122L12.957 9.62425Z" fill="#03285B"/>
<path d="M13.5544 10.1917V9.31403H13.5043V10.0852C13.4941 10.0874 13.4843 10.0909 13.4752 10.0958C13.4532 10.1077 13.4363 10.1265 13.4272 10.149C13.4182 10.1715 13.4176 10.1964 13.4256 10.2193C13.4335 10.2422 13.4496 10.2617 13.4709 10.2745C13.4923 10.2872 13.5176 10.2924 13.5425 10.2892C13.5674 10.286 13.5904 10.2745 13.6074 10.2568C13.6245 10.239 13.6345 10.2161 13.6359 10.192C13.6373 10.1679 13.6298 10.1441 13.6149 10.1246C13.6 10.1052 13.5784 10.0914 13.554 10.0856V10.1917H13.5544Z" fill="#03285B"/>
<path d="M12.6057 9.87878V10.2625L12.6092 10.2742C12.6092 10.2742 12.6881 10.397 12.7445 10.4776C12.7322 10.4923 12.7258 10.5107 12.7265 10.5295C12.7272 10.5482 12.7348 10.5662 12.7481 10.58C12.7614 10.5938 12.7793 10.6025 12.7988 10.6047C12.8182 10.6068 12.8378 10.6022 12.854 10.5916C12.8701 10.5811 12.8818 10.5653 12.8869 10.5471C12.892 10.529 12.8901 10.5097 12.8816 10.4927C12.8731 10.4758 12.8586 10.4624 12.8406 10.4549C12.8227 10.4474 12.8026 10.4463 12.7839 10.4519C12.7378 10.3837 12.6703 10.2807 12.6542 10.2557V9.87878H12.6057Z" fill="#03285B"/>
<path d="M14.4188 9.87878V10.2625L14.4152 10.2742C14.4152 10.2742 14.3363 10.397 14.28 10.4776C14.2923 10.4924 14.2987 10.5108 14.2981 10.5297C14.2974 10.5486 14.2898 10.5666 14.2764 10.5805C14.2631 10.5944 14.245 10.6032 14.2255 10.6054C14.2059 10.6075 14.1863 10.6029 14.17 10.5923C14.1537 10.5816 14.142 10.5658 14.1369 10.5475C14.1318 10.5293 14.1337 10.5099 14.1422 10.4929C14.1508 10.4758 14.1654 10.4624 14.1835 10.4548C14.2015 10.4473 14.2218 10.4463 14.2405 10.4519C14.2867 10.3837 14.3541 10.2807 14.3703 10.2557V9.87878H14.4188Z" fill="#03285B"/>
<path d="M14.8884 10.7485L14.7859 10.7185C14.767 10.7131 14.7506 10.7017 14.7394 10.6861C14.7281 10.6706 14.7227 10.6518 14.724 10.6329C14.7256 10.6097 14.7263 10.5866 14.7263 10.5636C14.7263 10.5406 14.7256 10.5175 14.724 10.4943C14.7227 10.4754 14.7281 10.4567 14.7394 10.4411C14.7506 10.4256 14.767 10.4141 14.7859 10.4087L14.8884 10.3788C14.916 10.3705 14.9391 10.3521 14.9527 10.3275C14.9663 10.303 14.9692 10.2743 14.961 10.2477L14.8967 10.0466C14.8925 10.0334 14.8856 10.0211 14.8765 10.0105C14.8674 9.99985 14.8562 9.99104 14.8435 9.98457C14.8308 9.9781 14.817 9.97409 14.8027 9.97277C14.7884 9.97145 14.774 9.97285 14.7603 9.97688L14.6581 10.0068C14.6393 10.0125 14.6191 10.0119 14.6007 10.005C14.5823 9.99808 14.567 9.98536 14.5572 9.96892C14.5246 9.9168 14.4881 9.86704 14.448 9.82006C14.4353 9.80561 14.4282 9.78748 14.4277 9.76863C14.4272 9.74978 14.4334 9.73132 14.4452 9.71627L14.5095 9.6337C14.5267 9.61137 14.5341 9.58338 14.53 9.55584C14.5258 9.5283 14.5105 9.50345 14.4874 9.48673L14.3123 9.36097C14.2891 9.34421 14.2599 9.33699 14.2311 9.3409C14.2024 9.34481 14.1764 9.35952 14.1589 9.3818L14.095 9.464C14.0834 9.47919 14.0667 9.49013 14.0477 9.49501C14.0287 9.4999 14.0086 9.49845 13.9905 9.49089C13.9283 9.46542 13.8639 9.44489 13.7981 9.42953C13.7789 9.42523 13.7618 9.41479 13.7497 9.39992C13.7375 9.38505 13.7309 9.36664 13.7311 9.34771V9.24506C13.731 9.2172 13.7194 9.19051 13.6988 9.17085C13.6783 9.15118 13.6505 9.14014 13.6215 9.14014H13.403C13.374 9.14014 13.3462 9.15118 13.3256 9.17085C13.3051 9.19051 13.2935 9.2172 13.2934 9.24506V9.34771C13.2935 9.36664 13.287 9.38505 13.2748 9.39992C13.2626 9.41479 13.2455 9.42523 13.2263 9.42953C13.1606 9.44489 13.0962 9.46542 13.0339 9.49089C13.0159 9.49845 12.9958 9.4999 12.9768 9.49501C12.9578 9.49013 12.9411 9.47919 12.9294 9.464L12.8655 9.3818C12.8569 9.37078 12.8461 9.3615 12.8338 9.35449C12.8214 9.34747 12.8077 9.34287 12.7935 9.34093C12.7793 9.339 12.7649 9.33977 12.751 9.34321C12.7371 9.34665 12.724 9.35268 12.7125 9.36097L12.5371 9.48749C12.5139 9.50421 12.4986 9.52906 12.4945 9.5566C12.4903 9.58413 12.4977 9.61213 12.515 9.63446L12.5793 9.71703C12.5911 9.73208 12.5973 9.75054 12.5968 9.76939C12.5963 9.78824 12.5891 9.80637 12.5765 9.82082C12.5362 9.8677 12.4997 9.91747 12.4673 9.96968C12.4575 9.98612 12.4421 9.99884 12.4238 10.0057C12.4054 10.0126 12.3851 10.0133 12.3663 10.0076L12.2642 9.97764C12.2505 9.9736 12.2361 9.9722 12.2218 9.97352C12.2075 9.97484 12.1936 9.97886 12.1809 9.98533C12.1683 9.9918 12.1571 10.0006 12.1479 10.0112C12.1388 10.0219 12.132 10.0341 12.1278 10.0473L12.0635 10.2485C12.0552 10.2751 12.0582 10.3038 12.0718 10.3283C12.0854 10.3528 12.1084 10.3712 12.136 10.3795L12.2386 10.4095C12.2574 10.4149 12.2738 10.4263 12.2851 10.4419C12.2963 10.4574 12.3018 10.4762 12.3005 10.4951C12.2989 10.5183 12.2981 10.5414 12.2981 10.5644C12.2981 10.5874 12.2989 10.6105 12.3005 10.6337C12.3018 10.6526 12.2963 10.6713 12.2851 10.6869C12.2738 10.7024 12.2574 10.7139 12.2386 10.7193L12.136 10.7492C12.1084 10.7575 12.0854 10.7759 12.0718 10.8005C12.0582 10.825 12.0552 10.8537 12.0635 10.8803L12.1278 11.0814C12.132 11.0946 12.1388 11.1069 12.1479 11.1175C12.1571 11.1282 12.1683 11.137 12.1809 11.1434C12.1936 11.1499 12.2075 11.1539 12.2218 11.1552C12.2361 11.1566 12.2505 11.1552 12.2642 11.1511L12.3663 11.1212C12.3851 11.1155 12.4054 11.1161 12.4238 11.123C12.4421 11.1299 12.4575 11.1426 12.4673 11.1591C12.4996 11.2113 12.5361 11.2611 12.5765 11.3079C12.5892 11.3224 12.5963 11.3406 12.5968 11.3596C12.5973 11.3785 12.5911 11.397 12.5793 11.4121L12.515 11.4951C12.4977 11.5174 12.4903 11.5454 12.4945 11.5729C12.4986 11.6005 12.5139 11.6253 12.5371 11.642L12.7125 11.7678C12.724 11.7761 12.7371 11.7821 12.751 11.7855C12.7649 11.789 12.7793 11.7898 12.7935 11.7878C12.8077 11.7859 12.8214 11.7813 12.8338 11.7743C12.8461 11.7673 12.8569 11.758 12.8655 11.747L12.9294 11.6648C12.9411 11.6496 12.9578 11.6386 12.9768 11.6337C12.9958 11.6289 13.0159 11.6303 13.0339 11.6379C13.0962 11.6633 13.1606 11.6839 13.2263 11.6992C13.2455 11.7035 13.2626 11.714 13.2748 11.7288C13.287 11.7437 13.2935 11.7621 13.2934 11.781V11.8837C13.2935 11.9116 13.3051 11.9382 13.3256 11.9579C13.3462 11.9776 13.374 11.9886 13.403 11.9886H13.6215C13.6505 11.9886 13.6783 11.9776 13.6988 11.9579C13.7194 11.9382 13.731 11.9116 13.7311 11.8837V11.7792C13.7309 11.7602 13.7375 11.7418 13.7497 11.7269C13.7618 11.7121 13.7789 11.7016 13.7981 11.6973C13.8639 11.682 13.9283 11.6614 13.9905 11.636C14.0086 11.6284 14.0287 11.627 14.0477 11.6319C14.0667 11.6367 14.0834 11.6477 14.095 11.6629L14.1589 11.7451C14.1675 11.7561 14.1783 11.7654 14.1907 11.7724C14.203 11.7794 14.2167 11.784 14.2309 11.7859C14.2451 11.7879 14.2596 11.7871 14.2735 11.7837C14.2874 11.7802 14.3004 11.7742 14.3119 11.7659L14.4874 11.6401C14.5105 11.6234 14.5258 11.5986 14.53 11.571C14.5341 11.5435 14.5267 11.5155 14.5095 11.4932L14.4452 11.4106C14.4334 11.3955 14.4272 11.3771 14.4277 11.3582C14.4282 11.3394 14.4353 11.3213 14.448 11.3068C14.4882 11.2599 14.5248 11.2102 14.5572 11.1579C14.567 11.1415 14.5823 11.1288 14.6007 11.1219C14.6191 11.115 14.6393 11.1144 14.6581 11.1201L14.7603 11.15C14.774 11.154 14.7884 11.1554 14.8027 11.1541C14.817 11.1528 14.8308 11.1488 14.8435 11.1423C14.8562 11.1358 14.8674 11.127 14.8765 11.1164C14.8856 11.1057 14.8925 11.0935 14.8967 11.0803L14.961 10.8792C14.9691 10.8526 14.9661 10.824 14.9525 10.7996C14.9389 10.7751 14.9159 10.7568 14.8884 10.7485ZM13.5122 11.4148C13.337 11.4148 13.1657 11.3648 13.02 11.2713C12.8743 11.1778 12.7607 11.0449 12.6936 10.8893C12.6266 10.7338 12.609 10.5627 12.6432 10.3976C12.6774 10.2325 12.7618 10.0808 12.8857 9.96178C13.0096 9.84274 13.1675 9.76168 13.3394 9.72884C13.5112 9.696 13.6894 9.71285 13.8513 9.77727C14.0132 9.84169 14.1516 9.95079 14.2489 10.0908C14.3463 10.2307 14.3983 10.3953 14.3983 10.5636C14.3983 10.6754 14.3753 10.7861 14.3308 10.8893C14.2863 10.9926 14.221 11.0864 14.1388 11.1655C14.0565 11.2445 13.9588 11.3072 13.8513 11.35C13.7438 11.3927 13.6286 11.4148 13.5122 11.4148Z" fill="#03285B"/>
</g>
<defs>
<clipPath id="clip0_3_13">
<rect width="18" height="15" fill="white"/>
</clipPath>
</defs>
</svg>
