<svg width="21" height="20" viewBox="0 0 21 20" fill="none" xmlns="http://www.w3.org/2000/svg">
<path d="M10.5 0C4.69884 0 0 4.47712 0 10C0 15.5249 4.69884 20 10.5 20C16.3012 20 21 15.5249 21 10C21 4.47712 16.3012 0 10.5 0ZM15.9387 13.8521C15.9387 14.1891 15.7886 14.5078 15.527 14.7365C15.2675 14.9653 14.9136 15.0756 14.5619 15.0449C13.3523 14.9367 12.1792 14.6324 11.0833 14.136C10.0175 13.652 9.05453 13.0045 8.21599 12.2079C7.3796 11.4134 6.69547 10.4922 6.19148 9.47713C5.67034 8.43342 5.34651 7.32026 5.23713 6.16422C5.23284 6.12745 5.23284 6.09273 5.23284 6.05596C5.23284 5.75572 5.3508 5.46773 5.56097 5.2451C5.80116 4.99592 6.13572 4.85294 6.48958 4.85294H8.17739C8.82077 4.85294 9.35264 5.30842 9.42555 5.91299C9.4663 6.26838 9.54136 6.61969 9.65074 6.96078C9.79014 7.38766 9.66789 7.84927 9.33977 8.15972L8.65564 8.81332C9.37408 10.0613 10.4657 11.1009 11.776 11.7851L12.4623 11.1315C12.7883 10.8211 13.273 10.7047 13.7212 10.8374C14.0794 10.9395 14.4482 11.0131 14.8214 11.0519C15.4562 11.1213 15.9344 11.6319 15.9344 12.2406V13.8521H15.9387Z" fill="white"/>
</svg>
